# xmcd
#
# Track frame offsets:
#	150
#	14733
#	33088
#	49643
#	78885
#	95962
#	120133
#	145045
#	160957
#	185242
#	202828
#	231465
#	257042
#
# Disc length: 3596
#
# Revision: 2
# Processed by: cddbd v1.5.1PL0 Copyright (c) Steve Scherf et al.
# Submitted via: ExactAudioCopy v0.90b4
# Normalized: r1:DSETVAR1,TDELIM( - )
#
DISCID=aa0e0a0d
DTITLE=Various Artist - Women In Blue (d2)
DYEAR=2003
DGENRE=Blues
TTITLE0=Norah Jones - Come Away With Me
TTITLE1=Patricia Kaas - Autumn Leaves
TTITLE2=Melissa Errico - Hot in Here
TTITLE3=Sanne Salomonsen - Sometimes It Snows In April
TTITLE4=Lisa Ono - Beyond The Reef
TTITLE5=Jane Monheit - Save your love for me
TTITLE6=Cassandra Wilson - Tupelo Honey
TTITLE7=Holly Cole - The heart of Saturday night
TTITLE8=Caecilie Norby - Calling You
TTITLE9=Monica Mancini - With my lover beside me
TTITLE10=k.d. Lang - Haint it funny
TTITLE11=Patricia Barber - Regular Pleasures
TTITLE12=Peggy Lee - As Time Goes By (Remix)
EXTD=
EXTT0=
EXTT1=
EXTT2=
EXTT3=
EXTT4=
EXTT5=
EXTT6=
EXTT7=
EXTT8=
EXTT9=
EXTT10=
EXTT11=
EXTT12=
PLAYORDER=
